<?xml version="1.0" encoding="UTF-8"?>
<svg version="1.1" viewBox="0 0 700 700" xmlns="http://www.w3.org/2000/svg" xmlns:xlink="http://www.w3.org/1999/xlink" fill="#fff">
 <defs>
  <symbol id="v" overflow="visible">
   <path d="m3.5-0.20312c-0.17969 0.09375-0.36719 0.16406-0.5625 0.20312-0.19922 0.050781-0.40234 0.078125-0.60938 0.078125-0.63672 0-1.1406-0.17578-1.5156-0.53125-0.36719-0.35156-0.54688-0.83594-0.54688-1.4531 0-0.60156 0.17969-1.082 0.54688-1.4375 0.375-0.36328 0.87891-0.54688 1.5156-0.54688 0.20703 0 0.41016 0.027344 0.60938 0.078125 0.19531 0.054688 0.38281 0.125 0.5625 0.21875v0.78125c-0.17969-0.125-0.35547-0.21094-0.53125-0.26562-0.17969-0.0625-0.36719-0.09375-0.5625-0.09375-0.35547 0-0.63281 0.11719-0.82812 0.34375-0.19922 0.21875-0.29688 0.52734-0.29688 0.92188 0 0.39844 0.097656 0.71094 0.29688 0.9375 0.19531 0.21875 0.47266 0.32812 0.82812 0.32812 0.19531 0 0.38281-0.023437 0.5625-0.078125 0.17578-0.0625 0.35156-0.15625 0.53125-0.28125z"/>
  </symbol>
  <symbol id="d" overflow="visible">
   <path d="m2.5625-2.0781c-0.074219-0.039063-0.15234-0.066406-0.23438-0.078125-0.085937-0.019531-0.16406-0.03125-0.23438-0.03125-0.24219 0-0.42188 0.078125-0.54688 0.23438-0.125 0.14844-0.1875 0.35938-0.1875 0.64062v1.3125h-0.92188v-2.8594h0.92188v0.46875c0.11328-0.1875 0.24219-0.32031 0.39062-0.40625 0.15625-0.09375 0.34375-0.14062 0.5625-0.14062 0.03125 0 0.0625 0.007812 0.09375 0.015625 0.039062 0 0.09375 0.007813 0.15625 0.015625z"/>
  </symbol>
  <symbol id="c" overflow="visible">
   <path d="m3.2969-1.4375v0.26562h-2.1406c0.019531 0.21094 0.097656 0.37109 0.23438 0.48438 0.13281 0.10547 0.32031 0.15625 0.5625 0.15625 0.1875 0 0.37891-0.023438 0.57812-0.078125 0.20703-0.0625 0.41406-0.14844 0.625-0.26562v0.70312c-0.21094 0.085938-0.42188 0.14844-0.64062 0.1875s-0.4375 0.0625-0.65625 0.0625c-0.51172 0-0.91406-0.12891-1.2031-0.39062-0.29297-0.26953-0.4375-0.64062-0.4375-1.1094s0.14062-0.83594 0.42188-1.1094c0.28906-0.26953 0.67969-0.40625 1.1719-0.40625 0.44531 0 0.80469 0.13672 1.0781 0.40625 0.26953 0.27344 0.40625 0.63672 0.40625 1.0938zm-0.9375-0.3125c0-0.16406-0.054687-0.30078-0.15625-0.40625-0.10547-0.11328-0.23438-0.17188-0.39062-0.17188-0.17969 0-0.32422 0.054687-0.4375 0.15625-0.11719 0.09375-0.18359 0.23438-0.20312 0.42188z"/>
  </symbol>
  <symbol id="b" overflow="visible">
   <path d="m1.7188-1.2812c-0.1875 0-0.33594 0.03125-0.4375 0.09375-0.09375 0.0625-0.14062 0.15625-0.14062 0.28125 0 0.11719 0.035156 0.21094 0.10938 0.28125 0.082031 0.0625 0.19531 0.09375 0.34375 0.09375 0.16406 0 0.30469-0.0625 0.42188-0.1875 0.125-0.125 0.1875-0.28125 0.1875-0.46875v-0.09375zm1.4062-0.35938v1.6406h-0.92188v-0.42188c-0.125 0.17969-0.26562 0.30859-0.42188 0.39062-0.15625 0.070312-0.34375 0.10938-0.5625 0.10938-0.29297 0-0.53125-0.082031-0.71875-0.25-0.1875-0.17578-0.28125-0.40625-0.28125-0.6875 0-0.33203 0.11328-0.57812 0.34375-0.73438 0.23828-0.15625 0.60156-0.23438 1.0938-0.23438h0.54688v-0.078125c0-0.14453-0.058594-0.25-0.17188-0.3125-0.11719-0.070312-0.29297-0.10938-0.53125-0.10938-0.19922 0-0.38672 0.023437-0.5625 0.0625-0.16797 0.042969-0.32422 0.10156-0.46875 0.17188v-0.6875c0.19531-0.050781 0.39453-0.085938 0.59375-0.10938 0.19531-0.03125 0.39453-0.046875 0.59375-0.046875 0.51953 0 0.89453 0.10547 1.125 0.3125 0.22656 0.19922 0.34375 0.52734 0.34375 0.98438z"/>
  </symbol>
  <symbol id="a" overflow="visible">
   <path d="m1.4375-3.6719v0.8125h0.9375v0.65625h-0.9375v1.2031c0 0.13672 0.023438 0.23047 0.078125 0.28125 0.050781 0.042969 0.15625 0.0625 0.3125 0.0625h0.46875v0.65625h-0.78125c-0.36719 0-0.62109-0.070312-0.76562-0.21875-0.14844-0.15625-0.21875-0.41406-0.21875-0.78125v-1.2031h-0.46875v-0.65625h0.46875v-0.8125z"/>
  </symbol>
  <symbol id="l" overflow="visible">
   <path d="m2.3906-2.4375v-1.5469h0.92188v3.9844h-0.92188v-0.40625c-0.125 0.16797-0.26562 0.29297-0.42188 0.375-0.14844 0.070312-0.32422 0.10938-0.53125 0.10938-0.34375 0-0.63281-0.14062-0.85938-0.42188-0.23047-0.28125-0.34375-0.64062-0.34375-1.0781 0-0.44531 0.11328-0.8125 0.34375-1.0938 0.22656-0.28125 0.51562-0.42188 0.85938-0.42188 0.19531 0 0.375 0.042969 0.53125 0.125 0.15625 0.085938 0.29688 0.21094 0.42188 0.375zm-0.60938 1.8438c0.19531 0 0.34766-0.066406 0.45312-0.20312 0.10156-0.14453 0.15625-0.35156 0.15625-0.625 0-0.28125-0.054687-0.48828-0.15625-0.625-0.10547-0.14453-0.25781-0.21875-0.45312-0.21875-0.1875 0-0.33594 0.074219-0.4375 0.21875-0.10547 0.13672-0.15625 0.34375-0.15625 0.625 0 0.27344 0.050781 0.48047 0.15625 0.625 0.10156 0.13672 0.25 0.20312 0.4375 0.20312z"/>
  </symbol>
  <symbol id="g" overflow="visible">
   <path d="m1.9688-0.59375c0.1875 0 0.33203-0.066406 0.4375-0.20312 0.10156-0.14453 0.15625-0.35156 0.15625-0.625 0-0.28125-0.054688-0.48828-0.15625-0.625-0.10547-0.14453-0.25-0.21875-0.4375-0.21875-0.19922 0-0.35156 0.074219-0.45312 0.21875-0.10547 0.14844-0.15625 0.35547-0.15625 0.625 0 0.27344 0.050781 0.48047 0.15625 0.625 0.10156 0.13672 0.25391 0.20312 0.45312 0.20312zm-0.60938-1.8438c0.125-0.16406 0.25781-0.28906 0.40625-0.375 0.15625-0.082031 0.33203-0.125 0.53125-0.125 0.35156 0 0.64453 0.14062 0.875 0.42188 0.22656 0.28125 0.34375 0.64844 0.34375 1.0938 0 0.4375-0.11719 0.79688-0.34375 1.0781-0.23047 0.28125-0.52344 0.42188-0.875 0.42188-0.19922 0-0.375-0.039062-0.53125-0.10938-0.14844-0.082031-0.28125-0.20703-0.40625-0.375v0.40625h-0.92188v-3.9844h0.92188z"/>
  </symbol>
  <symbol id="f" overflow="visible">
   <path d="m0.0625-2.8594h0.92188l0.76562 1.9375 0.65625-1.9375h0.90625l-1.2031 3.125c-0.11719 0.32031-0.25781 0.54688-0.42188 0.67188-0.15625 0.125-0.37109 0.1875-0.64062 0.1875h-0.51562v-0.59375h0.28125c0.15625 0 0.26562-0.027344 0.32812-0.078125 0.070313-0.054687 0.12891-0.14062 0.17188-0.26562l0.03125-0.078125z"/>
  </symbol>
  <symbol id="k" overflow="visible">
   <path d="m3.9062-0.28125c-0.24219 0.11719-0.49609 0.20312-0.76562 0.26562-0.26172 0.0625-0.53125 0.09375-0.8125 0.09375-0.63672 0-1.1406-0.17578-1.5156-0.53125-0.36719-0.35156-0.54688-0.83594-0.54688-1.4531 0-0.61328 0.1875-1.0977 0.5625-1.4531 0.375-0.35156 0.89062-0.53125 1.5469-0.53125 0.25781 0 0.50391 0.027344 0.73438 0.078125 0.22656 0.054688 0.44531 0.125 0.65625 0.21875v0.78125c-0.21094-0.125-0.42188-0.21094-0.64062-0.26562-0.21094-0.0625-0.41797-0.09375-0.625-0.09375-0.38672 0-0.6875 0.10938-0.90625 0.32812-0.21094 0.21875-0.3125 0.53125-0.3125 0.9375s0.097656 0.71875 0.29688 0.9375c0.20703 0.21875 0.5 0.32812 0.875 0.32812 0.10156 0 0.19531-0.003906 0.28125-0.015625 0.09375-0.007812 0.17578-0.03125 0.25-0.0625v-0.73438h-0.60938v-0.67188h1.5312z"/>
  </symbol>
  <symbol id="j" overflow="visible">
   <path d="m3.3125-1.75v1.75h-0.92188v-1.3281c0-0.25-0.007813-0.42188-0.015625-0.51562-0.011719-0.09375-0.027344-0.16016-0.046875-0.20312-0.042969-0.0625-0.09375-0.10938-0.15625-0.14062s-0.13281-0.046875-0.20312-0.046875c-0.1875 0-0.33984 0.074219-0.45312 0.21875-0.10547 0.14844-0.15625 0.35156-0.15625 0.60938v1.4062h-0.92188v-3.9844h0.92188v1.5469c0.13281-0.16406 0.28125-0.28906 0.4375-0.375 0.15625-0.082031 0.32812-0.125 0.51562-0.125 0.32031 0 0.56641 0.10547 0.73438 0.3125 0.17578 0.19922 0.26562 0.49219 0.26562 0.875z"/>
  </symbol>
  <symbol id="u" overflow="visible">
   <path d="m0.4375-2.8594h0.92188v2.8594h-0.92188zm0-1.125h0.92188v0.75h-0.92188z"/>
  </symbol>
  <symbol id="t" overflow="visible">
   <path d="m2.6719-2.7656v0.6875c-0.19922-0.082031-0.39062-0.14453-0.57812-0.1875-0.17969-0.039063-0.34375-0.0625-0.5-0.0625-0.17969 0-0.30859 0.027344-0.39062 0.078125-0.085937 0.042969-0.125 0.10547-0.125 0.1875 0 0.074219 0.03125 0.13281 0.09375 0.17188 0.0625 0.042969 0.17578 0.074219 0.34375 0.09375l0.15625 0.015625c0.46875 0.0625 0.78516 0.16406 0.95312 0.29688 0.16406 0.13672 0.25 0.35156 0.25 0.64062 0 0.30469-0.11719 0.53125-0.34375 0.6875-0.23047 0.15625-0.57031 0.23438-1.0156 0.23438-0.1875 0-0.38281-0.015625-0.57812-0.046875-0.19922-0.03125-0.40625-0.078125-0.625-0.14062v-0.6875c0.1875 0.085937 0.375 0.15234 0.5625 0.20312 0.1875 0.042969 0.37891 0.0625 0.57812 0.0625 0.1875 0 0.32031-0.023438 0.40625-0.078125 0.09375-0.050781 0.14062-0.125 0.14062-0.21875 0-0.082031-0.03125-0.14453-0.09375-0.1875-0.0625-0.039063-0.1875-0.070313-0.375-0.09375l-0.15625-0.015625c-0.40625-0.050781-0.69531-0.14453-0.85938-0.28125-0.16797-0.13281-0.25-0.34375-0.25-0.625 0-0.30078 0.10156-0.52344 0.3125-0.67188 0.20703-0.15625 0.52344-0.23438 0.95312-0.23438 0.17578 0 0.35156 0.015625 0.53125 0.046875 0.1875 0.023437 0.39062 0.0625 0.60938 0.125z"/>
  </symbol>
  <symbol id="s" overflow="visible">
   <path d="m0.48438-3.8125h1.25l0.875 2.0312 0.85938-2.0312h1.25v3.8125h-0.92188v-2.7969l-0.875 2.0625h-0.625l-0.89062-2.0625v2.7969h-0.92188z"/>
  </symbol>
  <symbol id="i" overflow="visible">
   <path d="m0.40625-1.1094v-1.75h0.92188v0.28125 0.59375 0.46875c0 0.23047 0.003906 0.39844 0.015625 0.5 0.007812 0.09375 0.03125 0.16406 0.0625 0.20312 0.03125 0.0625 0.078125 0.10938 0.14062 0.14062s0.13281 0.046875 0.21875 0.046875c0.1875 0 0.33203-0.070312 0.4375-0.21875 0.11328-0.14453 0.17188-0.34766 0.17188-0.60938v-1.4062h0.90625v2.8594h-0.90625v-0.40625c-0.13672 0.16797-0.28125 0.29297-0.4375 0.375-0.15625 0.070312-0.32812 0.10938-0.51562 0.10938-0.33594 0-0.58984-0.097656-0.76562-0.29688-0.16797-0.20703-0.25-0.50391-0.25-0.89062z"/>
  </symbol>
  <symbol id="h" overflow="visible">
   <path d="m0.4375-2.8594h0.92188v2.8125c0 0.38281-0.09375 0.67578-0.28125 0.875-0.1875 0.19531-0.45312 0.29688-0.79688 0.29688h-0.45312v-0.59375h0.15625c0.17578 0 0.29688-0.042969 0.35938-0.125 0.0625-0.074219 0.09375-0.22656 0.09375-0.45312zm0-1.125h0.92188v0.75h-0.92188z"/>
  </symbol>
  <symbol id="r" overflow="visible">
   <path d="m2.3281-3.9844v0.60938h-0.51562c-0.125 0-0.21484 0.027344-0.26562 0.078125-0.054687 0.042969-0.078125 0.12109-0.078125 0.23438v0.20312h0.78125v0.65625h-0.78125v2.2031h-0.92188v-2.2031h-0.45312v-0.65625h0.45312v-0.20312c0-0.3125 0.085937-0.53906 0.26562-0.6875 0.17578-0.15625 0.44531-0.23438 0.8125-0.23438z"/>
  </symbol>
  <symbol id="e" overflow="visible">
   <path d="m1.7969-2.2812c-0.19922 0-0.35547 0.074219-0.46875 0.21875-0.10547 0.14844-0.15625 0.35938-0.15625 0.64062 0 0.27344 0.050781 0.48047 0.15625 0.625 0.11328 0.14844 0.26953 0.21875 0.46875 0.21875 0.19531 0 0.34766-0.070313 0.45312-0.21875 0.11328-0.14453 0.17188-0.35156 0.17188-0.625 0-0.28125-0.058594-0.49219-0.17188-0.64062-0.10547-0.14453-0.25781-0.21875-0.45312-0.21875zm0-0.65625c0.5 0 0.88281 0.13672 1.1562 0.40625 0.28125 0.26172 0.42188 0.63281 0.42188 1.1094 0 0.46875-0.14062 0.83984-0.42188 1.1094-0.27344 0.26172-0.65625 0.39062-1.1562 0.39062-0.49219 0-0.875-0.12891-1.1562-0.39062-0.28125-0.26953-0.42188-0.64062-0.42188-1.1094 0-0.47656 0.14062-0.84766 0.42188-1.1094 0.28125-0.26953 0.66406-0.40625 1.1562-0.40625z"/>
  </symbol>
  <symbol id="q" overflow="visible">
   <path d="m3.0938-2.3906c0.11328-0.17578 0.25-0.3125 0.40625-0.40625 0.16406-0.09375 0.34375-0.14062 0.53125-0.14062 0.33203 0 0.58203 0.10547 0.75 0.3125 0.17578 0.19922 0.26562 0.49219 0.26562 0.875v1.75h-0.92188v-1.5-0.0625-0.09375c0-0.20703-0.03125-0.35156-0.09375-0.4375-0.054688-0.09375-0.14844-0.14062-0.28125-0.14062-0.17969 0-0.3125 0.074219-0.40625 0.21875-0.09375 0.13672-0.14062 0.33984-0.14062 0.60938v1.4062h-0.92188v-1.5c0-0.3125-0.03125-0.50781-0.09375-0.59375-0.054688-0.09375-0.14844-0.14062-0.28125-0.14062-0.17969 0-0.3125 0.074219-0.40625 0.21875-0.09375 0.13672-0.14062 0.33984-0.14062 0.60938v1.4062h-0.92188v-2.8594h0.92188v0.42188c0.10156-0.16406 0.22656-0.28906 0.375-0.375 0.14453-0.082031 0.30469-0.125 0.48438-0.125 0.19531 0 0.36719 0.054688 0.51562 0.15625 0.15625 0.09375 0.27344 0.22656 0.35938 0.39062z"/>
  </symbol>
  <symbol id="p" overflow="visible">
   <path d="m0.48438-3.8125h1.0938l1.3906 2.6094v-2.6094h0.9375v3.8125h-1.1094l-1.3906-2.625v2.625h-0.92188z"/>
  </symbol>
  <symbol id="o" overflow="visible">
   <path d="m3.3125-1.75v1.75h-0.92188v-1.3281c0-0.25-0.007813-0.42188-0.015625-0.51562-0.011719-0.09375-0.027344-0.16016-0.046875-0.20312-0.042969-0.0625-0.09375-0.10938-0.15625-0.14062s-0.13281-0.046875-0.20312-0.046875c-0.1875 0-0.33984 0.074219-0.45312 0.21875-0.10547 0.14844-0.15625 0.35156-0.15625 0.60938v1.4062h-0.92188v-2.8594h0.92188v0.42188c0.13281-0.16406 0.28125-0.28906 0.4375-0.375 0.15625-0.082031 0.32812-0.125 0.51562-0.125 0.32031 0 0.56641 0.10547 0.73438 0.3125 0.17578 0.19922 0.26562 0.49219 0.26562 0.875z"/>
  </symbol>
  <symbol id="n" overflow="visible">
   <path d="m0.48438-3.8125h1.625c0.48828 0 0.86328 0.10938 1.125 0.32812 0.25781 0.21094 0.39062 0.51172 0.39062 0.90625 0 0.40625-0.13281 0.71875-0.39062 0.9375-0.26172 0.21094-0.63672 0.3125-1.125 0.3125h-0.64062v1.3281h-0.98438zm0.98438 0.70312v1.0781h0.54688c0.1875 0 0.33203-0.046875 0.4375-0.14062 0.10156-0.09375 0.15625-0.22656 0.15625-0.40625 0-0.16406-0.054687-0.29688-0.15625-0.39062-0.10547-0.09375-0.25-0.14062-0.4375-0.14062z"/>
  </symbol>
  <symbol id="m" overflow="visible">
   <path d="m2.75-2.7656v0.73438c-0.125-0.082031-0.25-0.14453-0.375-0.1875-0.125-0.039062-0.25781-0.0625-0.39062-0.0625-0.25 0-0.44922 0.078125-0.59375 0.23438-0.14844 0.14844-0.21875 0.35547-0.21875 0.625 0 0.26172 0.070313 0.46875 0.21875 0.625 0.14453 0.14844 0.34375 0.21875 0.59375 0.21875 0.14453 0 0.28125-0.019531 0.40625-0.0625 0.13281-0.039063 0.25391-0.10156 0.35938-0.1875v0.75c-0.14844 0.054688-0.29297 0.085938-0.4375 0.10938-0.14844 0.03125-0.29297 0.046875-0.4375 0.046875-0.52344 0-0.92969-0.12891-1.2188-0.39062-0.29297-0.26953-0.4375-0.64062-0.4375-1.1094 0-0.47656 0.14453-0.84766 0.4375-1.1094 0.28906-0.26953 0.69531-0.40625 1.2188-0.40625 0.14453 0 0.28906 0.015625 0.4375 0.046875 0.14453 0.023437 0.28906 0.0625 0.4375 0.125z"/>
  </symbol>
 </defs>
 <g>
  <path d="m380.39 484.79 307.04-305.99c16.766-17.812 16.766-45.059 0-61.828-16.766-16.766-45.059-16.766-61.828 0l-275.6 275.6-275.6-275.6c-17.812-16.766-45.059-16.766-61.828 0-16.766 16.766-16.766 44.012 0 61.828l305.99 305.99c17.812 16.766 45.059 16.766 61.828 0z" fill-rule="evenodd"/>
  <use y="513.082031" xlink:href="#v"/>
  <use x="3.84375" y="513.082031" xlink:href="#d"/>
  <use x="6.429688" y="513.082031" xlink:href="#c"/>
  <use x="9.984375" y="513.082031" xlink:href="#b"/>
  <use x="13.519531" y="513.082031" xlink:href="#a"/>
  <use x="16.023438" y="513.082031" xlink:href="#c"/>
  <use x="19.578125" y="513.082031" xlink:href="#l"/>
  <use x="25.152344" y="513.082031" xlink:href="#g"/>
  <use x="28.902344" y="513.082031" xlink:href="#f"/>
  <use x="34.140625" y="513.082031" xlink:href="#k"/>
  <use x="38.441406" y="513.082031" xlink:href="#j"/>
  <use x="42.171875" y="513.082031" xlink:href="#u"/>
  <use x="43.96875" y="513.082031" xlink:href="#f"/>
  <use x="47.382812" y="513.082031" xlink:href="#b"/>
  <use x="50.917969" y="513.082031" xlink:href="#a"/>
  <use x="53.421875" y="513.082031" xlink:href="#t"/>
  <use x="58.367188" y="513.082031" xlink:href="#s"/>
  <use x="63.582031" y="513.082031" xlink:href="#i"/>
  <use x="67.308594" y="513.082031" xlink:href="#h"/>
  <use x="69.105469" y="513.082031" xlink:href="#a"/>
  <use x="71.609375" y="513.082031" xlink:href="#b"/>
  <use x="75.148438" y="513.082031" xlink:href="#g"/>
  <use x="78.898437" y="513.082031" xlink:href="#b"/>
  <use y="518.320312" xlink:href="#r"/>
  <use x="2.28125" y="518.320312" xlink:href="#d"/>
  <use x="4.863281" y="518.320312" xlink:href="#e"/>
  <use x="8.464844" y="518.320312" xlink:href="#q"/>
  <use x="15.746094" y="518.320312" xlink:href="#a"/>
  <use x="18.25" y="518.320312" xlink:href="#j"/>
  <use x="21.980469" y="518.320312" xlink:href="#c"/>
  <use x="27.359375" y="518.320312" xlink:href="#p"/>
  <use x="31.742188" y="518.320312" xlink:href="#e"/>
  <use x="35.34375" y="518.320312" xlink:href="#i"/>
  <use x="39.074219" y="518.320312" xlink:href="#o"/>
  <use x="44.628906" y="518.320312" xlink:href="#n"/>
  <use x="48.46875" y="518.320312" xlink:href="#d"/>
  <use x="51.050781" y="518.320312" xlink:href="#e"/>
  <use x="54.652344" y="518.320312" xlink:href="#h"/>
  <use x="56.449219" y="518.320312" xlink:href="#c"/>
  <use x="60" y="518.320312" xlink:href="#m"/>
  <use x="63.105469" y="518.320312" xlink:href="#a"/>
 </g>
</svg>
