<?xml version="1.0" encoding="UTF-8"?>
<svg version="1.1" xmlns="http://www.w3.org/2000/svg" viewBox="0 0 700 700" xmlns:xlink="http://www.w3.org/1999/xlink" fill="#fff" style="transform: translateY(2px);">
 <g>
  <path d="m115.58 15.27c-7.7266 0-15.559 3-21.438 8.8828-11.742 11.742-11.742 31.133 0 42.867l212.98 212.98-212.98 212.98c-11.742 11.742-11.742 31.133 0 42.867 5.6875 5.6875 13.633 8.8828 21.438 8.8828s15.742-3.1836 21.438-8.8828l212.98-212.98 212.98 212.98c5.6875 5.6875 13.633 8.8828 21.438 8.8828 7.6719 0 15.375-2.8164 21.438-8.8828 11.742-11.742 11.742-31.133 0-42.867l-212.98-212.98 212.98-212.98c11.742-11.742 11.742-31.133 0-42.867s-31.133-11.742-42.867 0l-212.98 212.98-212.98-212.98c-5.8711-5.8711-13.703-8.8828-21.438-8.8828z"/>
 </g>
</svg>
